<mxfile host="app.diagrams.net" modified="2021-01-07T10:49:40.601Z" agent="5.0 (Windows NT 10.0; Win64; x64) AppleWebKit/537.36 (KHTML, like Gecko) Chrome/87.0.4280.88 Safari/537.36 Edg/87.0.664.66" etag="lAnZMMMpcY4M_sQlbW4s" version="14.1.8" type="github">
  <diagram id="nGzYtU2YEDyPT4GWDPSB" name="Page-1">
    <mxGraphModel dx="868" dy="488" grid="1" gridSize="10" guides="1" tooltips="1" connect="1" arrows="1" fold="1" page="1" pageScale="1" pageWidth="827" pageHeight="1169" math="0" shadow="0">
      <root>
        <mxCell id="0" />
        <mxCell id="1" parent="0" />
        <mxCell id="0gh823C0n64Mw0A1rbjR-7" value="" style="edgeStyle=orthogonalEdgeStyle;rounded=0;orthogonalLoop=1;jettySize=auto;html=1;" edge="1" parent="1" source="0gh823C0n64Mw0A1rbjR-3" target="0gh823C0n64Mw0A1rbjR-4">
          <mxGeometry relative="1" as="geometry" />
        </mxCell>
        <mxCell id="0gh823C0n64Mw0A1rbjR-3" value="乙机开始" style="rounded=1;whiteSpace=wrap;html=1;" vertex="1" parent="1">
          <mxGeometry x="354" y="20" width="120" height="60" as="geometry" />
        </mxCell>
        <mxCell id="0gh823C0n64Mw0A1rbjR-9" value="" style="edgeStyle=orthogonalEdgeStyle;rounded=0;orthogonalLoop=1;jettySize=auto;html=1;" edge="1" parent="1" source="0gh823C0n64Mw0A1rbjR-4" target="0gh823C0n64Mw0A1rbjR-8">
          <mxGeometry relative="1" as="geometry" />
        </mxCell>
        <mxCell id="0gh823C0n64Mw0A1rbjR-4" value="初始化" style="rounded=0;whiteSpace=wrap;html=1;" vertex="1" parent="1">
          <mxGeometry x="366" y="120" width="96" height="40" as="geometry" />
        </mxCell>
        <mxCell id="0gh823C0n64Mw0A1rbjR-8" value="循环显示数码管等待中断" style="rounded=0;whiteSpace=wrap;html=1;" vertex="1" parent="1">
          <mxGeometry x="322.5" y="200" width="183" height="40" as="geometry" />
        </mxCell>
      </root>
    </mxGraphModel>
  </diagram>
</mxfile>
